<?xml version="1.0" encoding="utf-8"?>
<!-- Generator: Adobe Illustrator 25.4.1, SVG Export Plug-In . SVG Version: 6.00 Build 0)  -->
<svg version="1.1" id="Réteg_1" xmlns="http://www.w3.org/2000/svg" xmlns:xlink="http://www.w3.org/1999/xlink" x="0px" y="0px"
	 viewBox="0 0 2508.4 949.6" style="enable-background:new 0 0 2508.4 949.6;" xml:space="preserve">
<style type="text/css">
	.st0{fill:#1D71B8;}
	.st1{fill:#FFFFFF;}
	.st2{fill:#FFCE00;}
	.st3{fill:#3C3C3B;}
	.st4{fill:#E6007E;}
	.st5{fill:#009FE3;}
</style>
<path class="st0" d="M683.1,556.7c-5.8,0-16.1,5.2-32.6,29.5c-0.3,12.6-0.4,30.4-0.4,54.5c0,9.3-0.1,17.2-0.2,23.7
	c6.9-2.7,13.5-7.3,19.7-13.7c8.3-8.6,15-19.4,20-32.2l0,0c5-12.8,7.5-26.4,7.5-40.5c0-7.5-1.4-13-4.1-16.6
	C690.4,558.2,687.3,556.7,683.1,556.7z"/>
<path class="st0" d="M1581.3,569.3c0-4.2-1-7.4-3.2-9.7c-2-2.2-4.8-3.3-8.5-3.3c-8.8,0-16.2,5.3-22.7,16.1
	c-6,10.2-9.5,22.5-10.2,36.6c13.2-3.8,23.8-9,31.7-15.5C1577.1,586.4,1581.3,578.4,1581.3,569.3z"/>
<path class="st0" d="M555.6,838.5c0,8.5,0.9,15,2.8,19.2c1.7,3.8,2.9,4.3,2.9,4.3c0,0,7.4-1.3,14.3-46.7c4.1-26.9,7.1-59.4,8.8-97
	c-7.3,19-13.3,37.4-18.2,55C559.2,799.2,555.6,821.1,555.6,838.5z"/>
<path class="st0" d="M1436.4,398.7c0-16.7-3.2-20.4-4.3-20.4c0,0-3.5,0.4-9.9,13.4c-5.2,10.5-10.2,25.3-14.8,44.2
	c-3.7,14.9-6.9,31.3-9.7,48.8c11.2-11.6,20.1-24.3,26.4-37.9C1432.3,429.1,1436.4,413,1436.4,398.7z"/>
<path class="st0" d="M2196.4,373.9c0-8.5-0.9-15-2.7-19.3c-1.7-4.1-3.3-4.1-3.9-4.1c0,0-4.6,0.5-12.6,19.2
	c-6.2,14.6-12.4,34.6-18.2,59.6c-4.6,19.7-8.6,41-11.9,63.6c12.5-16.7,23.3-34.5,32.1-53.3C2190.6,415.4,2196.4,393.4,2196.4,373.9z
	"/>
<path class="st0" d="M2494.7,483.9c-0.1-0.1-0.1-0.1-0.2-0.2c-10.9-13.1-27.3-20.3-46.3-20.3c-19.2,0-35.3,4.9-47.7,14.7
	c0,0-0.1,0-0.1,0.1c-1.2,0.9-2.3,1.9-3.4,2.9c-1.6-1.7-3.3-3.3-5.1-4.9c-0.1,0-0.1-0.1-0.2-0.1c-10.4-8.5-23.5-12.6-40.1-12.6
	c-20.6,0-36.8,4.5-49.6,13.7c0,0,0,0-0.1,0c-4.9,3.6-9.4,7.8-13.3,12.7c-7.6-10.2-18-17.8-30.7-22.2c18.7-35.9,28.1-71.6,28.1-106.3
	c0-27.3-6.9-50.6-20.4-69.3c-16.2-22.4-39.9-34.8-66.8-34.8c-28.6,0-69.3,12.4-101.4,71.6c-19.8,36.6-34.9,81.8-44.8,134.3
	c-8.3,44.2-13.1,87.5-14.2,128.9c-8.5-2.8-18.6-4.7-30.5-4.7c-11,0-20.5,1.6-28.7,4.3c0.4-2.7,0.9-5.4,1.3-8.2c0-0.1,0-0.3,0.1-0.4
	c3.6-23.9,5.3-39,5.3-49c0-26-10.7-42.1-19.6-51c-8.9-8.9-25-19.6-51-19.6c-17.1,0-34.7,5.2-52.5,15.5c-2.6,1.5-5.2,3.1-7.7,4.9
	c-8.7-9.4-24.8-20.4-52.4-20.4c-16.5,0-33.1,4.9-49.4,14.6c-2.3-2.2-4.8-4.2-7.6-5.9c-0.1,0-0.1-0.1-0.2-0.1
	c-12.3-7.7-25.6-8.6-34.5-8.6c-19.1,0-35.4,4.3-48.3,12.8c-5.9,3.9-11.2,8.7-15.7,14.2c-18-17.7-42.2-27-70-27
	c-21.6,0-41.8,4.7-60.2,14.1c-0.5-0.6-1-1.1-1.6-1.7c0,0-0.1-0.1-0.1-0.1c-2.4-2.3-5.3-4.8-9-7.1c1.4-2.9,2.8-5.8,4.1-8.8
	c10.1-23.4,15.3-48.5,15.3-74.6c0-24.5-5.8-45.8-17.3-63.5c-14.8-22.8-37.6-35.4-64.2-35.4c-19.8,0-49.4,6.5-77.5,37.2
	c-17.9,19.5-33,45.2-45.1,76.5c-7.3,19-13.5,39.5-18.3,61.1c-8.1,1.2-15.7,4-22.4,8.1c-9-3.8-19.4-5.8-30.7-5.8
	c-17.1,0-34.9,5.3-52.9,15.8c0,0-0.1,0-0.1,0.1c-2.7-2.7-5.6-5.1-8.9-7.2c0,0-0.1-0.1-0.1-0.1c-12.3-7.7-25.6-8.6-34.5-8.6
	c-9.2,0-17.6,1-25.4,3c2.8-8.4,4.3-17.5,4.3-27.2c0-22.6-9.3-42.3-26.3-55.5c-14.1-11-32.1-16.8-52.2-16.8c-21.9,0-41.7,7-57.3,20.4
	c-17.3,14.8-26.8,35.2-26.8,57.7c0,8.8,1.2,16.5,3.2,23.3c-8.4-3.1-17.7-4.7-27.9-4.7c-17.1,0-34.9,5.3-52.9,15.8c0,0-0.1,0-0.1,0.1
	c-2.6-2.7-5.6-5.1-8.9-7.1c-0.1,0-0.1-0.1-0.2-0.1c-12.3-7.7-25.6-8.6-34.5-8.6c-19.1,0-35.4,4.3-48.3,12.8
	c-9.6,6.3-17.4,14.9-23.2,25.3c-0.8-1.1-1.6-2.2-2.5-3.3c-9.7-12.3-21.3-21.5-34.4-27.5c30.8-6.2,57.3-17.4,79.4-33.4
	c38.3-27.8,61.8-69.8,66.1-118.4c2.3-25.4-3.4-52-16.4-76.9c-13.1-25-33.1-47.2-58-64.2c-36.5-24.9-82.4-38-133-38c-1,0-2.1,0-3.1,0
	c-34,0.4-69.9,6.5-107.2,18.2c6.2-11.3,10.2-23.4,11.7-35.9c4.7-38.6-13.7-77.2-48.1-100.8c-40.2-27.5-92.9-28.5-141.1-2.6
	c-20.9,11.2-38.6,26.7-52.7,46.1c-12,16.5-21.4,36-28,58c-6.8,22.7-10.6,48.1-11.4,75.8c-6.2-7.9-13-15.2-20.4-21.8
	c-26.1-23.4-57.8-37.2-91.8-40.1c-36.4-3.1-74,6.9-108.9,28.8c-26.5,16.7-46.6,39.2-59.7,67.1C5.7,257.4-0.1,285.9,0,317.4
	c0.3,56.2,20,120.3,55.5,180.7c35,59.5,81.6,109.1,131.3,139.7c11.1,6.8,23.6,10.3,36.1,10.3c11.9,0,23.9-3.1,34.6-9.3
	c10.4-6,18.9-14.5,24.8-24.5c3,9.8,8.8,18.9,17.2,26c10.4,9,23.3,13.5,36.2,13.5c10.5,0,21-3,30.4-9.1c20.8-13.5,39.2-9.1,67-0.4
	c7.7,2.4,15.7,4.9,23.6,6.6c27.8,5.7,55.5-0.9,78.1-17.7c-18.6,34.3-33.2,66.7-43.5,96.8c-14.5,42.1-21.9,80.2-21.9,113.2
	c0,28.4,6.2,52.1,18.4,70.5c15.4,23.1,40.3,35.8,70,35.8c23.4,0,45-8.7,62.5-25.1c15-14.1,27.1-34,36.1-59.4
	c11.8-33.2,20.2-73,25.1-118.5c2.8-0.9,5.6-1.9,8.4-3c12.5,6.2,26.5,9.4,41.4,9.4c19.7,0,38-4,54.9-11.9
	c10.8,7.7,23.9,11.9,38.2,11.9c27,0,42.9-11.7,51.6-21.6c0,0,0,0,0.1-0.1c9-10.3,15.5-24.8,20.4-45.6c1.3-5.1,2.6-10.1,4.2-15.1
	c11.3,9.2,29.3,18.5,56.1,19.2c3,8.5,6.8,16.4,11.4,23.6c16.3,25.5,43.6,39.5,76.8,39.5c15.7,0,31.3-3.8,46.8-11.4
	c10.7,7.4,23.5,11.4,37.5,11.4c26.9,0,42.9-11.7,51.6-21.5c0,0,0,0,0.1-0.1c1.8-2,3.4-4.2,5-6.5c0.3,0.3,0.5,0.6,0.8,0.9
	c10.9,12.4,31.1,27.2,65.3,27.2c26.9,0,51.4-7.5,72.9-22.2c3.7-2.5,7.3-5.2,10.9-8c5.1,4.7,10.7,8.8,16.6,12.5
	c19.2,11.8,42.1,17.8,67.9,17.8c27.2,0,51.9-7.2,73.5-21.3c22.1,14.1,49.3,21.3,81,21.3c24.5,0,48-5.1,70-15
	c11.5,9.7,26.1,15,42.2,15c27,0,42.9-11.7,51.6-21.6c0,0,0,0,0.1-0.1c1.2-1.3,2.3-2.8,3.4-4.2c12.6,16.6,31.1,25.9,52.4,25.9
	c27,0,43-11.4,51.6-20.9c0.4-0.5,0.9-1,1.3-1.5c0.2,0.2,0.4,0.4,0.6,0.6c8.7,9.9,25,21.7,52.6,21.7c25.2,0,41-9.3,50.3-18
	c10.9,9.2,28.1,18,53.7,18c20.3,0,38.3-5.9,52.7-17c11,10.9,26.4,17,43.9,17c27.2,0,49.7-10.8,64.8-30.2c0.8,1,1.7,2,2.5,3
	c10.9,12.4,31.1,27.2,65.3,27.2c21.7,0,41.8-5,60-14.8c13.7,9.6,29.9,14.8,47.5,14.8c10.7,0,24.9-2.3,39.8-11.1
	c9.6,6.3,22.9,11.1,41.1,11.1c27.7,0,44-11.1,52.9-20.5c12.1-12.9,18.2-30.6,18.2-52.7c0-17.7,0.8-33.6,2.3-47.2
	c1.7-14.7,3.9-31.1,6.7-48.9c1.5-9.5,2.9-19,4.1-28.2c1.4-10.6,2.1-20.6,2.1-29.6C2508.4,509.1,2503.7,495,2494.7,483.9z
	 M1020.5,418c8.9-7.6,20.1-11.5,33.2-11.5c11.9,0,21.7,3,29.3,8.9c8,6.2,12,15.1,12,26.3c0,13.1-4.4,23.7-13,31.5
	c-8.5,7.7-19.8,11.6-33.5,11.6c-13.5,0-23.9-3.3-31-9.9c-7.2-6.7-10.8-15.9-10.8-27.5C1006.7,435.7,1011.3,425.8,1020.5,418z
	 M407.9,54.1C519.4-5.8,608.7,137.8,479,186c-41.1,15.3-72.6,42.6-94.6,67.6c-16.3,18.4-46.8,8.1-48.3-16.5
	C332.1,175.5,340.5,90.3,407.9,54.1z M283.8,380c-28.1,57.9-30.7,145.5-28.9,200.7c0.8,25.4-27,41.5-48.6,28.2
	C70.5,525.2-33.3,281.5,97,199.5C223.8,119.7,343.2,257.6,283.8,380z M297.9,509.3c10.1-77.6,51.1-205.2,204.7-282
	C735,111.1,856.2,233,848.6,318.2c-6.3,70.7-68.2,160.3-291.6,108.6c-124.2-28.8-196.2,39.3-232.1,92.7
	C316.2,532.5,295.9,524.8,297.9,509.3z M464.1,617.3c-28.8-5.9-71.3-31.3-118.2-1c-15.7,10.1-34.8-6.4-27.2-23.4
	c24.2-54,67.6-113.4,141.2-110.2C593.6,488.6,542.6,633.4,464.1,617.3z M1944.1,580.1c-2.9,17.4-5.2,34.3-6.9,50
	c-1.7,15.6-2.6,33.2-2.6,52.3c0,12.5-2.7,21.4-8.2,27.3c-5.5,5.9-14.2,8.8-25.8,8.8c-11.1,0-19.4-3.1-24.8-9.2
	c-5.2-5.9-7.8-14.5-7.8-25.7c0-11.8,2.1-31.4,6.1-58.2c3.4-22.8,5.2-37.5,5.2-43.6c0-0.7,0-1.1-0.1-1.5c-1.3,0.6-4.8,3.1-11.3,12.2
	c-6.7,9.4-13.6,22-20.3,37.5c-6.8,15.6-12.4,32.3-16.7,49.6c-3.4,14.9-7.4,24.7-12.3,30.1c-5.2,5.8-13.3,8.7-24.1,8.7
	c-11.5,0-20.5-5.7-26.2-16.5c-5.2-9.8-7.8-21.9-7.8-35.7c0-11.2,1.5-27.6,4.4-48.6c2.3-18.2,3.4-30.3,3.4-35.8c0-0.7,0-1.2-0.1-1.6
	c-1.4,0.6-5.1,2.9-11.6,13.1c-6.4,10.1-12.8,23.2-18.9,39.1c-6.1,16-11.1,31.8-14.8,47.2c-3.4,14.6-7.4,24.3-12.2,29.8
	c-5.2,5.9-13.2,9-23.7,9c-9.2,0-21.5-3.6-28.2-20.7c-0.8-2-1.5-4.2-2.2-6.7c-5.1,3.5-10.6,6.9-16.5,10.2
	c-20.3,11.4-42.3,17.2-65.4,17.2c-31.7,0-56.8-8.8-74.6-26.3c-1.8-1.8-3.6-3.7-5.3-5.7c-6.7,6.1-13.6,11.5-20.8,16.3
	c-15.6,10.4-33.7,15.7-53.8,15.7c-38,0-64.8-16.5-79.8-49c-11.4,13.2-23.7,24.4-36.7,33.3c-15.2,10.4-32.6,15.7-51.9,15.7
	c-16.3,0-28.9-4.9-37.4-14.6c-8.4-9.5-12.6-23.2-12.6-40.6c0-8.5,2-23.1,6.2-44.5c3.7-17.9,5.6-30.3,5.6-36.8c0-0.7,0-1.1-0.1-1.5
	c-1.3,0.7-4.7,3.1-11,12.1c-6.6,9.4-13.5,22.1-20.4,37.6c-6.9,15.6-12.6,32.2-16.9,49.6c-3.4,14.6-7.4,24.3-12.2,29.8
	c-5.2,5.9-13.2,9-23.7,9c-9.2,0-21.5-3.6-28.2-20.7c-0.4-1-0.8-2.1-1.2-3.3c-19,16-37.5,24-55.1,24c-20.7,0-36-7.5-45.5-22.4
	c-7.6-11.9-12.1-27-13.3-45.2c-8.3,3-17,4.5-26,4.5c-16.7,0-29.7-4.5-38.7-13.2c-9-8.8-13.5-20.8-13.5-35.5c0-4.6,0.5-9.2,1.4-13.8
	c0.5-5.5,0.8-9.2,0.8-11c0-0.7-0.1-1.2-0.1-1.6c-1.4,0.5-5.3,2.6-12.4,12.3c-6.8,9.4-13.7,22-20.5,37.5
	c-6.8,15.6-12.4,32.3-16.7,49.6c-3.4,14.5-7.4,24.3-12.2,29.8c-5.2,5.9-13.2,9-23.7,9c-9.2,0-21.5-3.6-28.2-20.7
	c-0.5-1.2-0.9-2.4-1.3-3.8c-3.8,3.2-7.8,6.1-11.7,8.8c-15.2,10.4-32.6,15.7-51.9,15.7c-15.3,0-28.2-5.1-38.3-15
	c-14.7,8.8-30.1,13.8-46,14.9c-4,54.2-12.6,100.2-25.6,137c-14.1,39.7-35.5,59.8-63.7,59.8c-17.4,0-30.6-6.5-39.2-19.3
	c-8.1-12.1-12.2-28.9-12.2-49.9c0-28.9,6.7-62.9,19.9-101.1c13-37.7,33.2-79.6,60.2-124.8c0-41.3-0.3-70.5-0.9-86.7
	c-0.4-10.1,3.9-18.5,12.2-24.5c7.8-5.5,17.6-8.4,29.1-8.4c7.5,0,13,1.6,16.7,5c3.9,3.5,6,9.5,6.3,18.3l0,0.2c0,0.9,0,1.8,0,2.6
	c6.7-7,13.4-12.4,20-16.1c9.8-5.5,20.3-8.3,31.3-8.3c17.9,0,32.6,7.3,43.9,21.6c11,13.9,16.6,32.3,16.6,54.6
	c0,15.9-2.6,31.5-7.7,46.5c-4.2,12.4-9.8,24-16.7,34.6c2.5,0.5,4.7,0.7,6.6,0.7c8.4,0,16.3-3,24.1-9.3c5.8-4.7,13-11.6,21.2-20.8
	c0.9-34.4,6.3-67.7,16.2-98.9c3-9.5,8-16.7,14.9-21.3c6.8-4.5,16.2-6.7,27.9-6.7c6.9,0,11.7,0.9,14.9,3c2.7,1.7,6,5.3,6,12.7
	c0,3.3-0.7,10.2-6.7,32.7c-2.3,9.3-4.3,17.7-5.8,25.1c5.5-10.5,11.4-19.8,17.5-27.8c12.3-16.1,24.6-27.9,36.6-34.9
	c12.2-7.1,23.7-10.7,34.2-10.7c21.6,0,33.5,11.9,33.5,33.5c0,2.6-0.4,8.4-4,28.3l0,0.1c-2.9,14.7-3.4,19.3-3.4,20.7
	c0,10,3.7,10,5.6,10c3.7,0,8.5-2,14.1-5.9c0-0.3,0.1-0.5,0.1-0.8c3.3-20.5,7.7-40,13-57.8c2.9-10.4,6.9-17.5,12.2-21.7
	c5.4-4.3,13.3-6.4,24.2-6.4c23.9,0,27.4,12.5,27.4,20c0,7.6-2.7,24.5-8.4,51.5c-6.9,31.4-10.3,52.9-10.3,63.7c0,7.8,1,13.8,2.9,17.7
	c1.4,2.9,3.5,4.1,7.1,4.1c2.2,0,7.1-1.2,16-9.5c5.2-4.8,11.7-11.6,19.3-20.4c0.9-34.5,6.3-67.9,16.2-99.2c3-9.5,8-16.7,14.9-21.3
	c6.8-4.5,16.2-6.7,27.9-6.7c6.9,0,11.7,0.9,14.9,3c2.7,1.7,6,5.3,6,12.7c0,3.3-0.7,10.3-6.7,32.6c-2.3,9.2-4.3,17.6-5.9,25.1
	c5.5-10.5,11.4-19.8,17.5-27.9c12.2-16.1,24.5-27.8,36.5-34.9c12.2-7.1,23.7-10.7,34.2-10.7c21.6,0,33.5,11.9,33.5,33.5
	c0,11.8-3.2,32.2-9.7,62.4c-5.4,24.7-8.1,41.2-8.1,48.9c0,12.2,4.8,12.2,7.4,12.2c3.1,0,8.5-1.6,17.2-9.3c7.8-6.9,18.3-18.4,31.4-34
	c1.8-2.1,3.7-3.8,5.7-5c-0.6-7.4-0.8-15.3-0.8-23.4c0-11,0.3-22.2,1-33.5H1316c-10.3,0-17.3-2.1-21.4-6.4c-4-4.2-6-10.5-6-18.8
	c0-25.8,15.5-29.6,24.8-29.6h20.3c5-30.4,12.4-58.7,22.2-84.1c10.3-26.9,23.1-48.7,37.8-64.7c15.3-16.7,32.2-25.2,50.2-25.2
	c14,0,25.1,6.2,33.1,18.5c7.5,11.5,11.3,26.1,11.3,43.3c0,42.2-16.3,79.9-48.6,112.2h35.5c6,0,10.6,1.5,13.7,4.6
	c3.1,3.1,4.6,8,4.6,15c0,11.9-5,21-14.8,27c-9.1,5.6-22.1,8.3-39.6,8.3h-48c-0.4,11.9-0.7,21.5-0.7,28.7c0,29.1,3.3,49.6,9.9,60.9
	c6.1,10.5,15.7,15.7,29.2,15.7c11.4,0,21.1-3.3,29.8-10.2c4.5-3.6,9.6-8.1,15-13.5c-0.6-5.2-0.9-10.5-0.9-15.8
	c0-20.7,4.4-40.3,13.1-58.2c8.8-18,21.1-32.5,36.8-43.1c15.8-10.7,33.8-16.1,53.6-16.1c18.2,0,33,5.6,44.1,16.5
	c11.1,11,16.8,25.9,16.8,44.4c0,21.4-7.8,39.9-23.1,55.2c-13.9,13.9-36.8,25.2-68,33.6c6.9,7.8,17.7,11.6,32.8,11.6
	c12.1,0,26.2-4.4,42.1-13.1c11.1-6.1,21.2-13.5,30.3-22.2c0.9-34.1,6.4-67.1,16.2-98.1c3-9.5,8-16.7,14.9-21.3
	c6.8-4.5,16.2-6.7,27.9-6.7c6.9,0,11.7,0.9,14.9,3c2.7,1.7,6,5.3,6,12.7c0,3.3-0.7,10.2-6.7,32.7c-1.9,7.6-3.6,14.6-5,20.9
	c3.9-7.4,8-14.2,12.4-20.5c11.2-16.1,22.9-28.4,34.9-36.4c12.3-8.2,24.2-12.4,35.3-12.4c11.6,0,20.2,2.9,25.4,8.7
	c5.1,5.6,7.7,14,7.7,24.8c0,6.9-1.4,17.5-4.2,32.1c4.4-7.7,9-14.7,13.8-20.9c12.1-15.9,24.3-27.4,36.1-34.2
	c12.1-7,23.5-10.5,33.9-10.5c10.7,0,19,2.9,24.8,8.7c5.8,5.8,8.7,14.1,8.7,24.8C1948.9,544.5,1947.3,558.7,1944.1,580.1z
	 M2039.3,704.9c-8.5,9-20.2,13.6-34.7,13.6c-14.2,0-25.2-4.1-32.7-12.1c-7.4-7.9-11.2-18.3-11.2-31c0-14.4,4.2-26.1,12.5-34.9
	c8.4-8.9,20.1-13.4,34.9-13.4c14.1,0,25,3.6,32.5,10.8c7.6,7.2,11.4,17.8,11.4,31.4C2052,684,2047.7,695.9,2039.3,704.9z
	 M2469.6,553.2c-1.2,8.9-2.5,18.1-3.9,27.3c-2.9,18.3-5.2,35.3-6.9,50.5c-1.7,15-2.6,32.3-2.6,51.4c0,12.5-2.7,21.4-8.2,27.3
	c-5.5,5.9-14.2,8.8-25.8,8.8c-12.4,0-21.4-3.6-26.6-10.6c-3.9-5.2-6.2-13.6-7-25.5c-3.6,7.1-7.7,13.2-12.3,18.3
	c-10.7,11.8-22.5,17.8-35,17.8c-15.3,0-27.8-6.3-37.1-18.9c-1.8-2.5-3.5-5.1-4.9-8c-4.8,4-9.6,7.8-14.4,11.1
	c-14.9,10.4-32.1,15.7-51.1,15.7c-16.3,0-28.9-4.9-37.4-14.6c-8.4-9.5-12.6-23.2-12.6-40.6c0-8.6,2-23.1,6.2-44.5
	c3.7-17.9,5.6-30.3,5.6-36.8c0-0.7,0-1.1-0.1-1.5c-1.3,0.6-4.8,3.1-11.3,12.2c-6.7,9.4-13.6,22-20.3,37.5
	c-6.8,15.6-12.4,32.3-16.7,49.6c-6,25.4-21.9,38.8-46,38.8c-13.6,0-19.5-6.8-22-12.5c-3.1-7-4.6-18.7-4.6-35.8
	c0-9.5,0.1-16.8,0.4-22.4l0.4-34.7c0-44.7,4.6-92,13.8-140.5c9.2-48.7,23-90.3,41-123.5c18.7-34.6,41.9-52.1,68.8-52.1
	c15.1,0,27.4,6.5,36.7,19.4c8.9,12.3,13.4,28.3,13.4,47.6c0,30-8.8,61.5-26.3,93.6c-17.1,31.4-45,68.3-83,109.9
	c-0.3,5.9-0.6,12-0.8,18.1c6.9-14.3,14.3-26.8,22.2-37.1c12.1-16,24.3-27.6,36.3-34.6c12.2-7.1,23.7-10.7,34.2-10.7
	c21.6,0,33.5,11.9,33.5,33.5c0,11.8-3.2,32.2-9.7,62.4c-5.4,24.8-8.2,41.2-8.2,48.9c0,12.2,4.8,12.2,7.4,12.2
	c3.1,0,8.5-1.6,17.2-9.3c5.2-4.6,11.7-11.3,19.3-19.9c0.6-14.7,2-28.6,4-41.4c2.9-18.4,7.8-38,14.6-58.4c3.2-9.7,8-16.9,14.1-21.3
	c6.2-4.5,15.3-6.6,27.9-6.6c7.7,0,13.1,1.4,16.6,4.2c2.6,2.1,5.6,6.1,5.6,13.2c0,1.9-0.6,6.5-4.9,24.7l0,0.1
	c-2.9,10.6-5.2,20.3-6.9,28.8c-5.7,29.9-8.6,50.1-8.6,59.9c0,7,1,9.4,1.4,10.2c0.3,0.5,0.7,1.1,2.5,1.1c0.4,0,4.1-0.3,12.4-11.2
	c6.4-8.4,13.2-21.5,20.4-38.9c7.3-17.5,14.3-39,20.9-63.9c2.6-9.8,6.8-17,12.5-21.5c5.7-4.5,14.1-6.8,24.8-6.8
	c8,0,13.9,2.3,17.7,6.9l0,0c3.5,4.3,5.3,10.5,5.3,18.3C2471.3,535.8,2470.7,544.1,2469.6,553.2z"/>
</svg>
