<?xml version="1.0" encoding="utf-8"?>
<!-- Generator: Adobe Illustrator 25.4.1, SVG Export Plug-In . SVG Version: 6.00 Build 0)  -->
<svg version="1.1" id="Réteg_1" xmlns="http://www.w3.org/2000/svg" xmlns:xlink="http://www.w3.org/1999/xlink" x="0px" y="0px"
	 viewBox="0 0 2561.1 988.7" style="enable-background:new 0 0 2561.1 988.7;" xml:space="preserve">
<style type="text/css">
	.st0{fill:#1D71B8;}
	.st1{fill:#FFFFFF;}
	.st2{fill:#FFCE00;}
	.st3{fill:#3C3C3B;}
	.st4{fill:#E6007E;}
	.st5{fill:#009FE3;}
</style>
<path class="st1" d="M2520.9,507.7c-0.1-0.1-0.1-0.1-0.2-0.2c-10.9-13.1-27.3-20.3-46.3-20.3c-19.2,0-35.3,4.9-47.7,14.7
	c0,0-0.1,0-0.1,0.1c-1.2,0.9-2.3,1.9-3.4,2.9c-1.6-1.7-3.3-3.3-5.1-4.9c-0.1,0-0.1-0.1-0.2-0.1c-10.4-8.5-23.5-12.6-40.1-12.6
	c-20.6,0-36.8,4.5-49.6,13.7c0,0,0,0-0.1,0c-4.9,3.6-9.4,7.8-13.3,12.7c-7.6-10.2-18-17.8-30.7-22.2c18.7-35.9,28.1-71.6,28.1-106.3
	c0-27.3-6.9-50.6-20.4-69.3c-16.2-22.4-39.9-34.8-66.8-34.8c-28.6,0-69.3,12.4-101.4,71.6c-19.8,36.6-34.9,81.8-44.8,134.3
	c-8.3,44.2-13.1,87.5-14.2,128.9c-8.5-2.8-18.6-4.7-30.5-4.7c-11,0-20.5,1.6-28.7,4.3c0.4-2.7,0.9-5.4,1.3-8.2c0-0.1,0-0.3,0.1-0.4
	c3.6-23.9,5.3-39,5.3-49c0-26-10.7-42.1-19.6-51c-8.9-8.9-25-19.6-51-19.6c-17.1,0-34.7,5.2-52.5,15.5c-2.6,1.5-5.2,3.1-7.7,4.9
	c-8.7-9.4-24.8-20.4-52.4-20.4c-16.5,0-33.1,4.9-49.4,14.6c-2.3-2.2-4.8-4.2-7.6-5.9c-0.1,0-0.1-0.1-0.2-0.1
	c-12.3-7.7-25.6-8.6-34.5-8.6c-19.1,0-35.4,4.3-48.3,12.8c-5.9,3.9-11.2,8.7-15.7,14.2c-18-17.7-42.2-27-70-27
	c-21.6,0-41.8,4.7-60.2,14.1c-0.5-0.6-1-1.1-1.6-1.7c0,0-0.1-0.1-0.1-0.1c-2.4-2.3-5.3-4.8-9-7.1c1.4-2.9,2.8-5.8,4.1-8.8
	c10.1-23.4,15.3-48.5,15.3-74.6c0-24.5-5.8-45.8-17.3-63.5c-14.8-22.8-37.6-35.4-64.2-35.4c-19.8,0-49.4,6.5-77.5,37.2
	c-17.9,19.5-33,45.2-45.1,76.5c-7.3,19-13.5,39.5-18.3,61.1c-8.1,1.2-15.7,4-22.4,8.1c-9-3.8-19.4-5.8-30.7-5.8
	c-17.1,0-34.9,5.3-52.9,15.8c0,0-0.1,0-0.1,0.1c-2.7-2.7-5.6-5.1-8.9-7.2c0,0-0.1-0.1-0.1-0.1c-12.3-7.7-25.6-8.6-34.5-8.6
	c-9.2,0-17.6,1-25.4,3c2.8-8.4,4.3-17.5,4.3-27.2c0-22.6-9.3-42.3-26.3-55.5c-14.1-11-32.1-16.8-52.2-16.8c-21.9,0-41.7,7-57.3,20.4
	c-17.3,14.8-26.8,35.2-26.8,57.7c0,8.8,1.2,16.5,3.2,23.3c-8.4-3.1-17.7-4.7-27.9-4.7c-17.1,0-34.9,5.3-52.9,15.8c0,0-0.1,0-0.1,0.1
	c-2.6-2.7-5.6-5.1-8.9-7.1c-0.1,0-0.1-0.1-0.2-0.1c-12.3-7.7-25.6-8.6-34.5-8.6c-19.1,0-35.4,4.3-48.3,12.8
	c-9.6,6.3-17.4,14.9-23.2,25.3c-0.8-1.1-1.6-2.2-2.5-3.3c-9.7-12.3-21.3-21.5-34.4-27.5c30.8-6.2,57.3-17.4,79.4-33.4
	c38.3-27.8,61.8-69.8,66.1-118.4c2.3-25.4-3.4-52-16.4-76.9c-13.1-25-33.1-47.2-58-64.2c-36.5-24.9-82.4-38-133-38c-1,0-2.1,0-3.1,0
	c-34,0.4-69.9,6.5-107.2,18.2c6.2-11.3,10.2-23.4,11.7-35.9c4.7-38.6-13.7-77.2-48.1-100.8c-40.2-27.5-92.9-28.5-141.1-2.6
	c-20.9,11.2-38.6,26.7-52.7,46.1c-12,16.5-21.4,36-28,58c-6.8,22.7-10.6,48.1-11.4,75.8c-6.2-7.9-13-15.2-20.4-21.8
	c-26.1-23.4-57.8-37.2-91.8-40.1c-36.4-3.1-74,6.9-108.9,28.8c-26.5,16.7-46.6,39.2-59.7,67.1c-11.7,24.9-17.6,53.4-17.4,84.9
	c0.3,56.2,20,120.3,55.5,180.7c35,59.5,81.6,109.1,131.3,139.7c11.1,6.8,23.6,10.3,36.1,10.3c11.9,0,23.9-3.1,34.6-9.3
	c10.4-6,18.9-14.5,24.8-24.5c3,9.8,8.8,18.9,17.2,26c10.4,9,23.3,13.5,36.2,13.5c10.5,0,21-3,30.4-9.1c20.8-13.5,39.2-9.1,67-0.4
	c7.7,2.4,15.7,4.9,23.6,6.6c27.8,5.7,55.5-0.9,78.1-17.7c-18.6,34.3-33.2,66.7-43.5,96.8c-14.5,42.1-21.9,80.2-21.9,113.2
	c0,28.4,6.2,52.1,18.4,70.5c15.4,23.1,40.3,35.8,70,35.8c23.4,0,45-8.7,62.5-25.1c15-14.1,27.1-34,36.1-59.4
	c11.8-33.2,20.2-73,25.1-118.5c2.8-0.9,5.6-1.9,8.4-3c12.5,6.2,26.5,9.4,41.4,9.4c19.7,0,38-4,54.9-11.9
	c10.8,7.7,23.9,11.9,38.2,11.9c27,0,42.9-11.7,51.6-21.6c0,0,0,0,0.1-0.1c9-10.3,15.5-24.8,20.4-45.6c1.3-5.1,2.6-10.1,4.2-15.1
	c11.3,9.2,29.3,18.5,56.1,19.2c3,8.5,6.8,16.4,11.4,23.6c16.3,25.5,43.6,39.5,76.8,39.5c15.7,0,31.3-3.8,46.8-11.4
	c10.7,7.4,23.5,11.4,37.5,11.4c26.9,0,42.9-11.7,51.6-21.5c0,0,0,0,0.1-0.1c1.8-2,3.4-4.2,5-6.5c0.3,0.3,0.5,0.6,0.8,0.9
	c10.9,12.4,31.1,27.2,65.3,27.2c26.9,0,51.4-7.5,72.9-22.2c3.7-2.5,7.3-5.2,10.9-8c5.1,4.7,10.7,8.8,16.6,12.5
	c19.2,11.8,42.1,17.8,67.9,17.8c27.2,0,51.9-7.2,73.5-21.3c22.1,14.1,49.3,21.3,81,21.3c24.5,0,48-5.1,70-15
	c11.5,9.7,26.1,15,42.2,15c27,0,42.9-11.7,51.6-21.6c0,0,0,0,0.1-0.1c1.2-1.3,2.3-2.8,3.4-4.2c12.6,16.6,31.1,25.9,52.4,25.9
	c27,0,43-11.4,51.6-20.9c0.4-0.5,0.9-1,1.3-1.5c0.2,0.2,0.4,0.4,0.6,0.6c8.7,9.9,25,21.7,52.6,21.7c25.2,0,41-9.3,50.3-18
	c10.9,9.2,28.1,18,53.7,18c20.3,0,38.3-5.9,52.7-17c11,10.9,26.4,17,43.9,17c27.2,0,49.7-10.8,64.8-30.2c0.8,1,1.7,2,2.5,3
	c10.9,12.4,31.1,27.2,65.3,27.2c21.7,0,41.8-5,60-14.8c13.7,9.6,29.9,14.8,47.5,14.8c10.7,0,24.9-2.3,39.8-11.1
	c9.6,6.3,22.9,11.1,41.1,11.1c27.7,0,44-11.1,52.9-20.5c12.1-12.9,18.2-30.6,18.2-52.7c0-17.7,0.8-33.6,2.3-47.2
	c1.7-14.7,3.9-31.1,6.7-48.9c1.5-9.5,2.9-19,4.1-28.2c1.4-10.6,2.1-20.6,2.1-29.6C2534.6,532.8,2530,518.7,2520.9,507.7z"/>
<g>
	<g>
		<path class="st2" d="M1043.8,498.8c7.1,6.6,17.5,9.9,31,9.9c13.7,0,25-3.9,33.5-11.6c8.7-7.8,13-18.4,13-31.5
			c0-11.2-4-20.1-12-26.3c-7.6-5.9-17.5-8.9-29.3-8.9c-13.1,0-24.3,3.9-33.2,11.5c-9.2,7.8-13.8,17.7-13.8,29.4
			C1033,482.8,1036.6,492.1,1043.8,498.8z"/>
		<path class="st3" d="M1941.7,526.9c-10.5,0-21.9,3.5-33.9,10.5c-11.9,6.8-24,18.3-36.1,34.2c-4.8,6.2-9.3,13.2-13.8,20.9
			c2.8-14.6,4.2-25.1,4.2-32.1c0-10.9-2.6-19.2-7.7-24.8c-5.2-5.8-13.8-8.7-25.4-8.7c-11.2,0-23,4.2-35.3,12.4
			c-11.9,8-23.7,20.3-34.9,36.4c-4.3,6.3-8.5,13.1-12.4,20.5c1.4-6.3,3.1-13.3,5-20.9c6-22.5,6.7-29.4,6.7-32.7c0-7.4-3.2-11-6-12.7
			c-3.3-2-8-3-14.9-3c-11.7,0-21.1,2.3-27.9,6.7c-7,4.6-12,11.7-14.9,21.3c-9.8,31-15.2,63.9-16.2,98.1c-9,8.7-19.2,16.2-30.3,22.2
			c-15.8,8.7-30,13.1-42.1,13.1c-15.1,0-25.9-3.8-32.8-11.6c31.2-8.4,54.1-19.7,68-33.6c15.3-15.3,23.1-33.9,23.1-55.2
			c0-18.5-5.6-33.4-16.8-44.4c-11.1-11-26-16.5-44.1-16.5c-19.8,0-37.9,5.4-53.6,16.1c-15.6,10.6-28,25.1-36.8,43.1
			c-8.7,17.9-13.1,37.5-13.1,58.2c0,5.4,0.3,10.7,0.9,15.8c-5.4,5.4-10.5,10-15,13.5c-8.7,6.9-18.4,10.2-29.8,10.2
			c-13.5,0-23-5.1-29.2-15.7c-6.6-11.3-9.9-31.8-9.9-60.9c0-7.2,0.2-16.8,0.7-28.7h48c17.5,0,30.5-2.7,39.6-8.3
			c9.8-6,14.8-15.1,14.8-27c0-7-1.5-11.9-4.6-15c-3-3-7.7-4.6-13.7-4.6H1466c32.2-32.3,48.6-70,48.6-112.2
			c0-17.2-3.8-31.8-11.3-43.3c-8-12.3-19.1-18.5-33.1-18.5c-18,0-34.9,8.5-50.2,25.2c-14.7,16.1-27.4,37.8-37.8,64.7
			c-9.8,25.4-17.2,53.6-22.2,84.1h-20.3c-9.3,0-24.8,3.8-24.8,29.6c0,8.3,2,14.7,6,18.8c4.1,4.3,11.1,6.4,21.4,6.4h11.4
			c-0.6,11.3-1,22.5-1,33.5c0,8.1,0.3,16,0.8,23.4c-2,1.3-3.9,2.9-5.7,5c-13.1,15.7-23.7,27.1-31.4,34c-8.7,7.7-14.1,9.3-17.2,9.3
			c-2.6,0-7.4,0-7.4-12.2c0-7.7,2.7-24.2,8.1-48.9c6.5-30.3,9.7-50.7,9.7-62.4c0-21.6-11.9-33.5-33.5-33.5c-10.5,0-22,3.6-34.2,10.7
			c-12,7-24.3,18.7-36.5,34.9c-6.1,8.1-12,17.4-17.5,27.9c1.6-7.5,3.5-15.9,5.9-25.1c6-22.4,6.7-29.3,6.7-32.6c0-7.4-3.2-11-6-12.7
			c-3.3-2-8-3-14.9-3c-11.7,0-21.1,2.3-27.9,6.7c-7,4.6-12,11.7-14.9,21.3c-9.9,31.3-15.4,64.7-16.2,99.2
			c-7.7,8.7-14.2,15.6-19.3,20.4c-8.9,8.2-13.9,9.5-16,9.5c-3.5,0-5.6-1.2-7.1-4.1c-1.9-3.9-2.9-9.8-2.9-17.7
			c0-10.9,3.5-32.3,10.3-63.7c5.6-27,8.4-43.9,8.4-51.5c0-7.5-3.6-20-27.4-20c-10.9,0-18.8,2.1-24.2,6.4
			c-5.3,4.2-9.3,11.4-12.2,21.7c-5.3,17.9-9.6,37.3-13,57.8c0,0.3-0.1,0.5-0.1,0.8c-5.5,3.9-10.4,5.9-14.1,5.9c-2,0-5.6,0-5.6-10
			c0-1.4,0.4-6,3.4-20.7l0-0.1c3.6-19.9,4-25.7,4-28.3c0-21.6-11.9-33.5-33.5-33.5c-10.5,0-22,3.6-34.2,10.7
			c-12,7-24.3,18.7-36.6,34.9c-6.1,8.1-12,17.4-17.5,27.8c1.6-7.4,3.5-15.8,5.8-25.1c6-22.5,6.7-29.4,6.7-32.7c0-7.4-3.2-11-6-12.7
			c-3.3-2-8-3-14.9-3c-11.7,0-21.1,2.3-27.9,6.7c-7,4.6-12,11.7-14.9,21.3c-9.9,31.2-15.3,64.5-16.2,98.9
			c-8.3,9.2-15.4,16.1-21.2,20.8c-7.8,6.3-15.7,9.3-24.1,9.3c-1.9,0-4.1-0.2-6.6-0.7c6.9-10.6,12.5-22.2,16.7-34.6
			c5.1-15,7.7-30.6,7.7-46.5c0-22.3-5.6-40.6-16.6-54.6c-11.3-14.3-26.1-21.6-43.9-21.6c-11,0-21.5,2.8-31.3,8.3
			c-6.6,3.7-13.3,9.1-20,16.1c0-0.8,0-1.7,0-2.6l0-0.2c-0.4-8.8-2.4-14.8-6.3-18.3c-3.8-3.4-9.3-5-16.7-5c-11.5,0-21.3,2.8-29.1,8.4
			c-8.3,5.9-12.6,14.4-12.2,24.5c0.6,16.2,0.9,45.4,0.9,86.7c-26.9,45.2-47.2,87.1-60.2,124.8c-13.2,38.2-19.9,72.2-19.9,101.1
			c0,21,4.1,37.8,12.2,49.9c8.5,12.8,21.7,19.3,39.2,19.3c28.1,0,49.6-20.1,63.7-59.8c13.1-36.8,21.7-82.9,25.6-137
			c15.9-1.1,31.3-6,46-14.9c10.1,10,23,15,38.3,15c19.3,0,36.7-5.3,51.9-15.7c3.9-2.7,7.9-5.7,11.7-8.8c0.4,1.3,0.9,2.6,1.3,3.8
			c6.6,17.1,19,20.7,28.2,20.7c10.5,0,18.5-3,23.7-9c4.8-5.5,8.8-15.3,12.2-29.8c4.3-17.3,9.9-34,16.7-49.6
			c6.8-15.5,13.7-28.2,20.5-37.5c7.1-9.7,11-11.8,12.4-12.3c0.1,0.4,0.1,0.9,0.1,1.6c0,1.8-0.3,5.5-0.8,11
			c-0.9,4.6-1.4,9.2-1.4,13.8c0,14.7,4.6,26.7,13.5,35.5c9,8.8,22,13.2,38.7,13.2c8.9,0,17.7-1.5,26-4.5
			c1.2,18.2,5.7,33.3,13.3,45.2c9.5,14.9,24.8,22.4,45.5,22.4c17.6,0,36.1-8.1,55.1-24c0.4,1.2,0.8,2.3,1.2,3.3
			c6.6,17.1,19,20.7,28.2,20.7c10.5,0,18.5-3,23.7-9c4.8-5.5,8.8-15.3,12.2-29.8c4.3-17.3,9.9-34,16.9-49.6
			c6.9-15.6,13.8-28.2,20.4-37.6c6.3-9,9.7-11.5,11-12.1c0.1,0.4,0.1,0.8,0.1,1.5c0,6.6-1.9,18.9-5.6,36.8
			c-4.2,21.4-6.2,36-6.2,44.5c0,17.5,4.2,31.2,12.6,40.6c8.5,9.7,21.1,14.6,37.4,14.6c19.3,0,36.7-5.3,51.9-15.7
			c12.9-8.9,25.2-20.1,36.7-33.3c15,32.5,41.8,49,79.8,49c20.1,0,38.2-5.3,53.8-15.7c7.2-4.8,14.1-10.2,20.8-16.3
			c1.7,2,3.4,3.9,5.3,5.7c17.8,17.4,42.8,26.3,74.6,26.3c23.1,0,45.2-5.8,65.4-17.2c5.8-3.3,11.4-6.7,16.5-10.2
			c0.7,2.4,1.4,4.7,2.2,6.7c6.6,17.1,19,20.7,28.2,20.7c10.5,0,18.5-3,23.7-9c4.8-5.5,8.8-15.3,12.2-29.8
			c3.7-15.4,8.7-31.2,14.8-47.2c6.1-15.9,12.5-29,18.9-39.1c6.5-10.2,10.2-12.5,11.6-13.1c0.1,0.4,0.1,0.9,0.1,1.6
			c0,5.5-1.2,17.6-3.4,35.8c-2.9,21-4.4,37.3-4.4,48.6c0,13.9,2.6,25.9,7.8,35.7c5.7,10.8,14.7,16.5,26.2,16.5
			c10.8,0,18.9-2.9,24.1-8.7c4.9-5.4,8.9-15.2,12.3-30.1c4.2-17.3,9.9-34,16.7-49.6c6.8-15.5,13.6-28.2,20.3-37.5
			c6.5-9.1,10-11.5,11.3-12.2c0.1,0.4,0.1,0.8,0.1,1.5c0,6.1-1.7,20.8-5.2,43.6c-4.1,26.8-6.1,46.4-6.1,58.2
			c0,11.1,2.6,19.8,7.8,25.7c5.4,6.1,13.7,9.2,24.8,9.2c11.6,0,20.3-3,25.8-8.8c5.5-5.8,8.2-14.8,8.2-27.3c0-19.1,0.9-36.7,2.6-52.3
			c1.7-15.8,4.1-32.6,6.9-50c3.3-21.4,4.9-35.6,4.9-43.4c0-10.7-2.9-19-8.7-24.8C1960.7,529.8,1952.4,526.9,1941.7,526.9z
			 M1594.7,617.2c-7.9,6.5-18.6,11.7-31.7,15.5c0.7-14.1,4.2-26.4,10.2-36.6c6.4-10.9,13.9-16.1,22.7-16.1c3.7,0,6.5,1.1,8.5,3.3
			c2.2,2.4,3.2,5.5,3.2,9.7C1607.6,602.2,1603.4,610.1,1594.7,617.2z M1424,508.4c2.7-17.5,6-33.8,9.7-48.8
			c4.7-18.9,9.7-33.7,14.8-44.2c6.4-13,9.8-13.4,9.9-13.4c1.1,0,4.3,3.8,4.3,20.4c0,14.2-4.2,30.4-12.3,48
			C1444.1,484.1,1435.2,496.8,1424,508.4z M723.3,601.7c0,14.1-2.5,27.7-7.5,40.5l0,0c-4.9,12.8-11.7,23.6-20,32.2
			c-6.2,6.4-12.8,11-19.7,13.7c0.1-6.5,0.2-14.5,0.2-23.7c0-24,0.1-41.9,0.4-54.5c16.5-24.3,26.9-29.5,32.6-29.5
			c4.2,0,7.3,1.5,9.8,4.7C721.9,588.7,723.3,594.2,723.3,601.7z M610.8,742.1c-1.8,37.6-4.7,70.1-8.8,97
			c-7,45.4-14.3,46.7-14.3,46.7c0,0-1.2-0.5-2.9-4.3c-1.9-4.2-2.8-10.7-2.8-19.2c0-17.4,3.6-39.3,10.7-65.2
			C597.4,779.5,603.5,761.1,610.8,742.1z"/>
		<path class="st4" d="M2034.3,650.8c-14.8,0-26.5,4.5-34.9,13.4c-8.3,8.8-12.5,20.5-12.5,34.9c0,12.6,3.8,23.1,11.2,31
			c7.5,8,18.5,12.1,32.7,12.1c14.5,0,26.2-4.6,34.7-13.6c8.5-8.9,12.7-20.9,12.7-35.6c0-13.6-3.8-24.2-11.4-31.4
			C2059.4,654.5,2048.4,650.8,2034.3,650.8z"/>
		<path class="st5" d="M2492.3,533.8L2492.3,533.8c-3.8-4.6-9.8-6.9-17.7-6.9c-10.7,0-19.1,2.3-24.8,6.8
			c-5.7,4.5-9.9,11.7-12.5,21.5c-6.6,24.9-13.6,46.4-20.9,63.9c-7.2,17.3-14.1,30.4-20.4,38.9c-8.2,10.9-12,11.2-12.4,11.2
			c-1.8,0-2.1-0.6-2.5-1.1c-0.4-0.7-1.4-3.2-1.4-10.2c0-9.8,2.9-30,8.6-59.9c1.7-8.5,4-18.2,6.9-28.8l0-0.1
			c4.4-18.3,4.9-22.8,4.9-24.7c0-7.1-3-11.1-5.6-13.2c-3.5-2.8-8.9-4.2-16.6-4.2c-12.5,0-21.7,2.2-27.9,6.6
			c-6.1,4.4-10.9,11.6-14.1,21.3c-6.7,20.4-11.6,40.1-14.6,58.4c-2,12.8-3.4,26.7-4,41.4c-7.7,8.6-14.1,15.3-19.3,19.9
			c-8.7,7.7-14.1,9.3-17.2,9.3c-2.6,0-7.4,0-7.4-12.2c0-7.7,2.7-24.2,8.2-48.9c6.5-30.3,9.7-50.7,9.7-62.4
			c0-21.6-11.9-33.5-33.5-33.5c-10.5,0-22,3.6-34.2,10.7c-12,7-24.2,18.7-36.3,34.6c-7.8,10.4-15.3,22.8-22.2,37.1
			c0.2-6.1,0.5-12.2,0.8-18.1c38-41.6,66-78.6,83-109.9c17.5-32.1,26.3-63.6,26.3-93.6c0-19.3-4.5-35.3-13.4-47.6
			c-9.3-12.8-21.6-19.4-36.6-19.4c-26.9,0-50,17.5-68.8,52.1c-18,33.2-31.8,74.8-41,123.5c-9.2,48.5-13.8,95.8-13.8,140.5l-0.4,34.7
			c-0.3,5.6-0.4,12.9-0.4,22.4c0,17.1,1.5,28.9,4.6,35.8c2.5,5.7,8.4,12.5,22,12.5c24,0,39.9-13.4,46-38.8
			c4.3-17.3,9.9-34,16.7-49.6c6.8-15.5,13.6-28.2,20.3-37.5c6.5-9.1,10-11.5,11.3-12.2c0.1,0.4,0.1,0.8,0.1,1.5
			c0,6.6-1.9,18.9-5.6,36.8c-4.2,21.4-6.2,35.9-6.2,44.5c0,17.5,4.2,31.2,12.6,40.6c8.5,9.7,21.1,14.6,37.4,14.6
			c19,0,36.2-5.3,51.1-15.7c4.8-3.4,9.6-7.1,14.4-11.1c1.5,2.9,3.1,5.5,4.9,8c9.3,12.5,21.7,18.9,37.1,18.9c12.5,0,24.3-6,35-17.8
			c4.6-5.1,8.7-11.2,12.3-18.3c0.8,11.9,3.1,20.3,7,25.5c5.2,7,14.2,10.6,26.6,10.6c11.6,0,20.3-3,25.8-8.8
			c5.5-5.8,8.2-14.8,8.2-27.3c0-19.1,0.9-36.4,2.6-51.4c1.7-15.2,4.1-32.2,6.9-50.5c1.4-9.2,2.8-18.4,3.9-27.3
			c1.2-9.1,1.8-17.4,1.8-24.8C2497.6,544.2,2495.8,538.1,2492.3,533.8z M2173.4,516.6c3.3-22.6,7.3-43.9,11.9-63.6
			c5.8-25,12-45,18.2-59.6c8-18.7,12.5-19.2,12.6-19.2c0.5,0,2.1,0,3.9,4.1c1.8,4.3,2.7,10.8,2.7,19.3c0,19.4-5.8,41.5-17.1,65.6
			C2196.7,482.1,2186,500,2173.4,516.6z"/>
	</g>
	<path class="st2" d="M324.2,533c-2,15.5,18.2,23.2,27,10.2c35.9-53.4,107.8-121.5,232.1-92.7c223.5,51.8,285.3-37.9,291.6-108.6
		c7.6-85.2-113.6-207.1-345.9-90.9C375.3,327.8,334.4,455.4,324.2,533z"/>
	<path class="st3" d="M372.2,640.1c-15.7,10.1-34.8-6.4-27.2-23.4c24.2-54,67.6-113.4,141.2-110.2c133.7,5.9,82.7,150.6,4.2,134.6
		C461.6,635.2,419.1,609.7,372.2,640.1z"/>
	<path class="st5" d="M232.6,632.7c21.6,13.3,49.4-2.8,48.6-28.2c-1.7-55.2,0.9-142.8,28.9-200.7c59.3-122.5-60-260.3-186.9-180.5
		C-7,305.2,96.8,548.9,232.6,632.7z"/>
	<path class="st4" d="M362.3,260.9c1.6,24.5,32,34.9,48.3,16.5c22-24.9,53.6-52.3,94.6-67.6C635,161.6,545.6,18,434.2,77.9
		C366.8,114.1,358.4,199.2,362.3,260.9z"/>
</g>
</svg>
